<svg xmlns="http://www.w3.org/2000/svg" viewBox="0 0 267.23 80.14"><defs><style>.cls-1{fill:#e13e29;}.cls-2{fill:none;}</style></defs><g id="Calque_2" data-name="Calque 2"><g id="Calque"><path class="cls-1" d="M0,75.77c-.09-1.56,4.17-2.62,6-7.43.42-1.08,1-3,2.38-3.22.8-.13,1.19.38,2.06.62,3.74,1.06,7.27-5.41,13.46-5.44a11,11,0,0,0,4.75-.5c.31-.13,2.14-.89,2.06-1.73-.09-1-2.72-1.5-7-2.48-6.59-1.51-9.91-2.29-11.09-3.09-4-2.71-5.23-8.09-3-9.9,1-.85,2.68-.78,2.86-1.61.23-1.1-2.46-1.92-2.22-3.34.11-.69.78-.77.79-1.37,0-1.15-2.48-1.46-3.48-2.6-2-2.25,1.71-7.91,7.12-11.26a30,30,0,0,1,9-3.47c4.69-1.08,9.57-1.2,12.52-2.59a6.4,6.4,0,0,1,2.06-.62c.44-.06,2.61-.35,3.64.49,1.43,1.17-.6,3.43,1,4.71.41.33.76.34,1.74.61.44.13,6.71,1.93,7.13,4.58.16,1-.57,1.53,0,2.23s1.28.65,2.38.87c1.89.37,5.6,1.1,5.86,2.23.2.9-1.92,1.54-1.58,2.6.17.53.78.55,1.1,1.36s-.05,1,.32,1.36,1.5.23,1.74.62-.66.76-.79,1.48c-.18,1,1.38,1.42,1.9,2.6.68,1.53-.81,3.33-1.9,4.21-1.88,1.51-3.68.67-6,1.61-4,1.6-6.23,6.76-4.27,10.4C52,60.44,55.88,62.32,57,61.78c.42-.19.26-.61.95-1.11a3.64,3.64,0,0,1,3-.5c.59.2.88.55,1.43,1.24,1.24,1.57,1,2.39,1.74,2.6s1.52-.63,3.17-1.36a17.25,17.25,0,0,1,5.07-1c2.45-.29,3.29-.22,8.08-.5,2.31-.13,3.47-.2,3.8-.24,3.29-.48,5.37-1.71,8.55-3.47,7.24-4,6.56-3.27,8.56-4.58,4.09-2.69,6.16-5.3,10.13-10.4,6.83-8.76,7.42-12.76,11.09-15.47a7.49,7.49,0,0,0,2.7-3.22,5.63,5.63,0,0,0,.15-3.34c-1-4.08-5.59-4.92-5.54-8.17,0-.94.39-.76.63-2.47.29-2.06-.14-3.12.8-4.46a14.09,14.09,0,0,1,1.1-1.12A36.17,36.17,0,0,1,126.73.39a2.36,2.36,0,0,1,.79-.31c.24,0,.73-.15,1,0,.44.29-.08,1.55-1,2.54S125.68,4,125.86,4.35a1,1,0,0,0,1,.25c.26-.13.11-.43.4-.75s.51-.27.87-.43c1.13-.51.87-1.57,1.82-1.79a1.19,1.19,0,0,1,.79.06c.3.17.18.47.4.55.37.15.89-.66,1.66-.61a1.37,1.37,0,0,1,.95.55,1,1,0,0,1,0,1.36c-.18.18-.32.18-.79.38a15.51,15.51,0,0,0-1.66,1c-.84.44-1.11.44-1.43.8a1.8,1.8,0,0,0-.4.8c-.4,1.73-1.57,2.41-1.5,3.66,0,.69.41.79,1.5,2.29,1.29,1.75.92,1.8,3,5.44,1.08,1.88,1.34,2.14,1.43,2.91a5.71,5.71,0,0,1-.87,3.28c-.87,1.81-1.3,3.73-2.06,5.57-2.51,6.07-2,5.4-3.57,8.91a61.17,61.17,0,0,1-3.32,6.81c-1.64,2.83-1.85,2.59-3.09,4.95s-1.62,3.78-3.25,5.82a10.49,10.49,0,0,1-3,2.66c-.77.46-1.06.51-1.9.93a17.3,17.3,0,0,0-4,3c-.58.52-2.39,2.12-4.36,3.59A34.3,34.3,0,0,1,98.77,70c-1.36.69-1.59.68-3.56,1.67-2.87,1.45-2.51,1.53-3.88,2-1.78.67-2.93.75-3.65,1.67a2.18,2.18,0,0,0-.47,1.24C86.73,80.09.39,82.73,0,75.77Z"/><path class="cls-1" d="M58.06,22.74h.72v-3.1h-.72V15.07h7.85c4.27,0,6.14,1.33,6.14,4.38,0,2.82-1.6,4.21-4.68,4.21a6.16,6.16,0,0,1-2.79-.54v.05a2,2,0,0,0,1.56,1.3v2.85H58.06Zm8-3.19c0-.55-.32-.82-.95-.82h-.54v1.49a1.48,1.48,0,0,0,.63.13C65.78,20.35,66.07,20.08,66.07,19.55Z"/><path class="cls-1" d="M72.19,22.26c0-3.43,2.3-5.35,6.41-5.35S85,18.83,85,22.26,82.7,27.6,78.6,27.6,72.19,25.68,72.19,22.26Zm7.06,0c0-.9-.2-1.25-.65-1.25s-.65.35-.65,1.25.2,1.24.65,1.24S79.25,23.16,79.25,22.26Z"/><path class="cls-1" d="M85.54,22.74h.67v-1h-.67V19.39a5.15,5.15,0,0,0,3.3,1,6.11,6.11,0,0,0,2.88-.66v3h.67v4.58H85.54Zm.17-5.69c0-1.65,1.2-2.72,3.11-2.72s3.12,1.07,3.12,2.72-1.21,2.72-3.12,2.72S85.71,18.71,85.71,17.05Z"/><path class="cls-1" d="M93.05,22.74h.67v-1h-.67V17.2h6V19h.07a3.62,3.62,0,0,1,3.53-2.1c2.25,0,3.42,1.24,3.42,3.56v2.27h.66v4.58h-6.17V21.73a.56.56,0,0,0-.6-.64.78.78,0,0,0-.73.54v1.11h.66v4.58H93.05Z"/><path class="cls-1" d="M107.52,24.51V21.77h-.66v-4c1.06-.18,1.65-1,2-2.67H113V17.2h1.87v4.57H113v.52c0,.47.25.61.84.61a3.39,3.39,0,0,0,.85-.1l.27,4.41a11,11,0,0,1-3.17.39C108.67,27.6,107.52,26.78,107.52,24.51Z"/><path class="cls-2" d="M119.53,11.13c0-3.76,2.21-6.27,6-6.27a4.85,4.85,0,0,1,3.22,1h.07l.15-.67H133v6.59h-5.8V9.85a1,1,0,0,0-.52-.12c-.59,0-1,.36-1,1.17,0,1.27.9,1.82,2.86,1.82a12.54,12.54,0,0,0,4.09-.72l.63,4.73a13.81,13.81,0,0,1-5.4.95C122.37,17.68,119.53,15.4,119.53,11.13Z"/><path class="cls-1" d="M133.68,12.34c0-3.42,2.3-5.35,6.41-5.35s6.41,1.93,6.41,5.35-2.31,5.34-6.41,5.34S133.68,15.76,133.68,12.34Zm7.06,0c0-.9-.2-1.25-.65-1.25s-.65.35-.65,1.25.2,1.24.65,1.24S140.74,13.24,140.74,12.34Z"/><path class="cls-1" d="M147.21,12.82h.67v-1h-.67V7.28h5.89V9.1h.07A3.6,3.6,0,0,1,156.67,7a2.92,2.92,0,0,1,3.15,2.11h.07A3.6,3.6,0,0,1,163.38,7c2.22,0,3.37,1.24,3.37,3.56v2.27h.67V17.4h-6.07V11.82a.57.57,0,0,0-.6-.65.78.78,0,0,0-.73.54v1.11h.66V17.4h-6.07V11.82c0-.42-.21-.65-.59-.65a.8.8,0,0,0-.74.54v1.11H154V17.4h-6.74Z"/><path class="cls-1" d="M168,12.34C168,8.86,170.29,7,174.41,7c3.79,0,5.78,1.57,5.78,4.45a7.61,7.61,0,0,1-.12,1.35h-6.34c.07.66.6.86,2.13.86a14.9,14.9,0,0,0,3.6-.41l.43,3.65a12.44,12.44,0,0,1-4.72.79Q168,17.68,168,12.34Zm7-.83v-.16c0-.81-.2-1.17-.65-1.17s-.65.36-.65,1.17v.16Z"/><path class="cls-1" d="M180.68,12.36c0-3.43,1.42-5.37,3.83-5.37a3.12,3.12,0,0,1,3.08,2.11h.07V8.47a2,2,0,0,0-.93-1.84V4.7h6.44v8.12h.67V17.4h-6V15.58h-.07a3.22,3.22,0,0,1-3.19,2.1C182.08,17.68,180.68,15.76,180.68,12.36Zm7,.86V11.44a.66.66,0,0,0-.59-.35c-.43,0-.63.38-.63,1.25s.2,1.24.63,1.24A.65.65,0,0,0,187.66,13.22Z"/><path class="cls-1" d="M194.68,12.82h.67v-1h-.67V9.47a5.15,5.15,0,0,0,3.3,1,6.14,6.14,0,0,0,2.88-.67v3h.66V17.4h-6.84Zm.16-5.69c0-1.65,1.21-2.72,3.12-2.72s3.11,1.07,3.11,2.72-1.2,2.72-3.11,2.72S194.84,8.79,194.84,7.13Z"/><path class="cls-1" d="M202.15,12.34c0-3.48,2.25-5.35,6.38-5.35,3.78,0,5.77,1.57,5.77,4.45a7.61,7.61,0,0,1-.12,1.35h-6.34c.07.66.6.86,2.13.86a14.9,14.9,0,0,0,3.6-.41l.43,3.65a12.44,12.44,0,0,1-4.72.79Q202.16,17.68,202.15,12.34Zm7-.83v-.16c0-.81-.2-1.17-.65-1.17s-.65.36-.65,1.17v.16Z"/><path class="cls-1" d="M214.8,14.82c0-1.71,1.3-2.86,3.25-2.86s3.24,1.15,3.24,2.86-1.3,2.86-3.24,2.86S214.8,16.53,214.8,14.82Z"/><path class="cls-1" d="M221.81,12.28c0-3.44,2.21-5.29,6.3-5.29,3.17,0,4.84,1.12,4.84,3.2a2.38,2.38,0,0,1-2.66,2.54c-1.6,0-2.52-.84-2.52-2.23,0-.2,0-.34,0-.49h-.07a2.81,2.81,0,0,0-.27,1.26c0,1.53,1,2.32,2.88,2.32a5.89,5.89,0,0,0,2.2-.4L233,17a10.91,10.91,0,0,1-4.27.72C224.17,17.68,221.81,15.85,221.81,12.28Z"/><path class="cls-1" d="M233.49,12.34c0-3.42,2.3-5.35,6.41-5.35s6.41,1.93,6.41,5.35-2.31,5.34-6.41,5.34S233.49,15.76,233.49,12.34Zm7.06,0c0-.9-.2-1.25-.65-1.25s-.65.35-.65,1.25.2,1.24.65,1.24S240.55,13.24,240.55,12.34Z"/><path class="cls-1" d="M247,12.82h.67v-1H247V7.28h5.89V9.1H253A3.6,3.6,0,0,1,256.48,7a2.92,2.92,0,0,1,3.15,2.11h.07A3.6,3.6,0,0,1,263.19,7c2.22,0,3.37,1.24,3.37,3.56v2.27h.67V17.4h-6.07V11.82a.57.57,0,0,0-.6-.65.78.78,0,0,0-.73.54v1.11h.66V17.4h-6.07V11.82c0-.42-.21-.65-.59-.65a.8.8,0,0,0-.74.54v1.11h.67V17.4H247Z"/></g></g></svg>