<svg xmlns="http://www.w3.org/2000/svg" viewBox="0 0 34.4 20.57"><defs><style>.cls-1{fill:#e13e29;}</style></defs><g id="Calque_2" data-name="Calque 2"><g id="Calque_1-2" data-name="Calque 1"><path class="cls-1" d="M0,19.45c0-.4,1.07-.68,1.55-1.91.1-.28.24-.77.61-.83.2,0,.3.1.52.16,1,.27,1.87-1.39,3.46-1.4a2.86,2.86,0,0,0,1.22-.12c.08,0,.55-.23.53-.45s-.7-.38-1.79-.63a12.7,12.7,0,0,1-2.85-.8c-1-.69-1.34-2.07-.77-2.54.27-.21.69-.2.73-.41s-.63-.49-.57-.86c0-.17.2-.2.21-.35s-.64-.37-.9-.67c-.51-.57.44-2,1.83-2.89A8,8,0,0,1,6.1,4.86,20.1,20.1,0,0,0,9.31,4.2,1.75,1.75,0,0,1,9.84,4a1.37,1.37,0,0,1,.93.13c.37.29-.15.88.25,1.2.1.09.19.09.44.16s1.73.5,1.83,1.18c0,.25-.14.39,0,.57s.33.17.61.22c.49.1,1.44.28,1.51.57s-.49.4-.41.67.2.14.29.35,0,.26.08.35.38.06.45.16-.18.19-.21.38.36.36.49.67-.21.85-.49,1.08c-.48.38-.94.17-1.54.41A2,2,0,0,0,13,14.81c.38.7,1.37,1.18,1.67,1,.1,0,.06-.16.24-.29a.94.94,0,0,1,.77-.13.77.77,0,0,1,.37.32c.32.4.26.61.45.67s.39-.16.81-.35a4.46,4.46,0,0,1,1.3-.26c.63-.07.84-.05,2.07-.12.6,0,.9,0,1-.07a5.76,5.76,0,0,0,2.19-.89c1.86-1,1.69-.84,2.2-1.17a10.21,10.21,0,0,0,2.6-2.67c1.75-2.25,1.9-3.27,2.85-4a2,2,0,0,0,.69-.83,1.43,1.43,0,0,0,0-.85c-.26-1-1.44-1.27-1.42-2.1,0-.24.1-.2.16-.64s0-.8.2-1.14l.29-.29a8.77,8.77,0,0,1,1.09-1A.56.56,0,0,1,32.73,0c.06,0,.18,0,.24,0s0,.4-.24.65-.48.35-.43.45a.24.24,0,0,0,.26.06c.07,0,0-.11.11-.19s.13-.07.22-.11c.29-.13.22-.41.47-.46a.28.28,0,0,1,.2,0c.08,0,0,.12.1.15s.23-.17.43-.16a.36.36,0,0,1,.24.14.26.26,0,0,1,0,.35s-.08,0-.2.09-.18.13-.43.26-.28.11-.36.21a.3.3,0,0,0-.1.2c-.11.45-.41.62-.39.94s.1.2.39.59.23.46.77,1.39c.28.49.34.55.36.75a1.41,1.41,0,0,1-.22.84c-.22.47-.33,1-.53,1.43C33,9.17,33.11,9,32.71,9.9a16.84,16.84,0,0,1-.86,1.75c-.42.72-.47.66-.79,1.27a8.2,8.2,0,0,1-.83,1.49,2.6,2.6,0,0,1-.78.68c-.19.12-.27.13-.48.24a4.57,4.57,0,0,0-1,.78c-.15.13-.61.54-1.12.92a9.28,9.28,0,0,1-1.46.94c-.35.17-.41.17-.92.43a10.61,10.61,0,0,1-1,.52c-.46.17-.75.19-.94.43a.58.58,0,0,0-.12.32C22.26,20.55.1,21.23,0,19.45Z"/></g></g></svg>